PathFileType	4	(X/Y/Z)	C:\Git\1_current_projects\powerlifing_model\simulations\Athlete_03\25_03_31\Walking_01\markers_experimental.trc
DataRate	CameraRate	NumFrames	NumMarkers	Units	OrigDataRate	OrigDataStartFrame	OrigNumFrames
200.000000	200.000000	4	53	mm	200.000000	209	239
Frame#	Time	GLAB			RFHD			LFHD			C7			T6			SPINMOL			SPINM2			SPINM3			T12			BELTOL			BELT2			BELT3			SACROL			SACR2			SACR3			LTHOL			LTH2			LTH3			LSHAOL			LSHA2			LSHA3			LHEE			LTOE			LM5			RTHOL			RTH2			RTH3			RSHAOL			RSHA2			RSHA3			RHEE			RTOE			RM5			STRN			XIPH			LACR			LUAOL			LUA2			LUA3			LLAOL			LLA2			LLA3			LWRR			LWRU			RACR			RUAOL			RUA2			RUA3			RLAOL			RLA2			RLA3			RWRR			RWRU			
		X1	Y1	Z1	X2	Y2	Z2	X3	Y3	Z3	X4	Y4	Z4	X5	Y5	Z5	X6	Y6	Z6	X7	Y7	Z7	X8	Y8	Z8	X9	Y9	Z9	X10	Y10	Z10	X11	Y11	Z11	X12	Y12	Z12	X13	Y13	Z13	X14	Y14	Z14	X15	Y15	Z15	X16	Y16	Z16	X17	Y17	Z17	X18	Y18	Z18	X19	Y19	Z19	X20	Y20	Z20	X21	Y21	Z21	X22	Y22	Z22	X23	Y23	Z23	X24	Y24	Z24	X25	Y25	Z25	X26	Y26	Z26	X27	Y27	Z27	X28	Y28	Z28	X29	Y29	Z29	X30	Y30	Z30	X31	Y31	Z31	X32	Y32	Z32	X33	Y33	Z33	X34	Y34	Z34	X35	Y35	Z35	X36	Y36	Z36	X37	Y37	Z37	X38	Y38	Z38	X39	Y39	Z39	X40	Y40	Z40	X41	Y41	Z41	X42	Y42	Z42	X43	Y43	Z43	X44	Y44	Z44	X45	Y45	Z45	X46	Y46	Z46	X47	Y47	Z47	X48	Y48	Z48	X49	Y49	Z49	X50	Y50	Z50	X51	Y51	Z51	X52	Y52	Z52	X53	Y53	Z53	

210	1.045	187.7212677001953	1587.738891601563	-892.1336059570315	251.3338165283204	1612.656982421875	-839.7471313476565	113.0680160522461	1611.413330078125	-851.074890136719	171.7918395996094	1429.263061523438	-665.0689086914064	172.1689147949219	1260.82568359375	-604.1606445312501	152.0938415527344	1220.086059570313	-594.8345947265626	201.8274383544922	1213.940795898438	-590.5726928710939	169.8133544921875	1156.39990234375	-599.4802246093751	175.8232574462891	1091.0166015625	-623.5569458007814	165.5707092285157	1057.671264648438	-585.1243286132814	215.7651519775391	1055.184326171875	-587.6298828125001	186.6438598632813	995.6754150390627	-579.6573486328126	171.8417358398438	951.1938476562502	-594.5791015625001	222.8206481933594	946.1352539062502	-602.3591308593751	194.4825897216797	890.7635498046877	-578.3792724609376	4.155153274536134	682.2946166992189	-625.6616210937501	40.38275527954102	640.8838500976564	-568.0410766601564	21.97684288024903	625.1458740234376	-611.6597290039064	32.88171768188477	335.2071228027344	-531.2273559570314	49.4763526916504	285.4666137695313	-471.1069946289064	43.28886032104493	274.7398681640626	-520.0845336914064	144.6356811523438	97.60063934326175	-415.6470947265626	127.5455932617188	43.00815963745118	-626.7780761718751	30.57004356384278	31.49328041076661	-572.0067138671876	360.1286315917969	657.0338745117189	-768.5393066406252	374.5258483886719	626.1089477539064	-840.3464965820315	350.3258056640626	606.3365478515626	-802.3164062500002	347.3004150390626	331.0171508789063	-888.3247680664065	353.5880126953126	278.2973937988282	-945.7507324218752	332.9162292480469	272.4967041015626	-900.8881835937502	232.9076538085938	59.75190734863283	-970.2302856445315	268.5793151855469	125.266098022461	-1167.116577148438	359.6961669921876	81.11401367187501	-1120.549194335938	178.1134185791016	1325.660278320313	-834.4046020507815	175.8445587158203	1181.2509765625	-845.4486083984377	1.55112648010254	1392.489501953125	-745.6333007812501	-105.5832901000977	1246.928100585938	-762.7065429687501	-126.5106430053711	1184.485473632813	-762.2497558593751	-104.1126708984375	1197.987060546875	-806.7768554687502	-152.7753601074219	1009.78369140625	-877.3004150390627	-134.7172393798828	932.8114013671877	-880.6766357421877	-144.4727478027344	964.6864013671877	-918.1248168945315	-131.7417907714844	894.635437011719	-993.9900512695315	-63.96659469604494	928.740661621094	-1019.658447265625	345.9167175292969	1384.219482421875	-743.4617919921876	444.6982727050782	1242.249389648438	-695.0463256835939	457.4292907714845	1178.072509765625	-707.8989257812501	460.8027648925782	1190.013549804688	-657.8225708007814	505.055389404297	972.997985839844	-652.8451538085939	545.3173217773439	916.352233886719	-691.9621582031251	513.7534790039064	909.6910400390627	-655.8653564453126	540.2730712890626	825.5653076171877	-675.2223510742189	479.2593383789064	799.2480468750002	-723.2459716796876	
211	1.05	188.6206512451172	1586.619506835938	-898.986022949219	252.2799835205079	1611.46435546875	-846.606628417969	114.0038223266602	1610.354248046875	-857.8928222656252	172.6370391845703	1428.201293945313	-671.8594360351564	173.0171661376953	1259.767578125	-610.9255371093751	152.9266662597657	1219.035888671875	-601.5471801757814	202.6636810302735	1212.853515625	-597.3692016601564	170.5929412841797	1155.334838867188	-606.2066650390626	176.4922485351563	1089.91357421875	-630.3147583007814	166.2866363525391	1056.605834960938	-591.9426879882814	216.4673004150391	1054.033569335938	-594.5471801757814	187.2598114013672	994.5863037109377	-586.5078735351564	172.4454803466797	950.4664306640627	-601.3713989257814	223.2573852539063	945.1291503906252	-609.5460205078126	194.9528808593751	890.0322875976565	-584.9772338867189	4.272770404815675	682.2935791015626	-630.5035400390626	40.90797805786134	641.1846923828126	-572.9216918945314	22.08125495910645	625.2068481445314	-616.2744140625001	32.69138717651368	335.8253784179688	-533.9663696289064	49.31739807128908	286.6247863769532	-473.4229125976564	43.13962936401368	275.4795837402344	-522.3113403320314	144.4411315917969	99.23962402343753	-416.2964782714845	127.5375366210938	42.90214538574219	-626.9140625000001	30.56445503234864	31.50944900512696	-572.1959838867189	359.3522338867188	655.3777465820314	-774.073913574219	374.7437744140626	624.1848754882814	-845.582214355469	349.6825866699219	604.6489868164064	-807.9053344726565	347.0915832519532	329.6595458984376	-897.6050415039065	353.4682006835938	278.0457763671876	-956.1079711914065	332.9048767089844	271.3885803222657	-911.2819824218752	233.6246795654297	59.26551055908205	-984.8921508789065	267.9666748046876	129.30419921875	-1180.542236328125	359.4338378906251	84.02199554443361	-1135.618041992188	178.7555236816407	1324.50439453125	-841.2655029296877	176.2620391845703	1180.122924804688	-852.2517089843752	2.344480037689209	1391.542236328125	-752.3237915039064	-104.8161926269532	1246.133056640625	-769.5892333984377	-125.7914810180664	1183.6982421875	-769.3421630859377	-103.4490737915039	1197.356201171875	-813.847595214844	-152.1974792480469	1009.679626464844	-885.3596191406252	-134.1335906982422	932.725769042969	-889.3037719726565	-143.848617553711	964.8948364257815	-926.5193481445315	-131.0560760498047	895.4423828125002	-1002.902221679688	-63.23186492919923	929.744812011719	-1028.227905273438	346.6760864257813	1383.032836914063	-750.3710937500001	445.3362731933595	1241.141357421875	-701.5572509765626	458.1150817871095	1176.927978515625	-714.2079467773439	461.3739318847657	1189.007568359375	-664.1693725585939	505.6345214843751	971.9815063476565	-658.6088867187501	545.9290771484376	915.2434692382815	-697.5388793945314	514.3148803710939	908.6630859375002	-661.4856567382814	540.8463745117189	824.4835205078127	-680.6004638671876	479.8815307617189	798.0675048828127	-728.7102661132814	
212	1.055	189.5549774169922	1585.516967773438	-905.8740844726565	253.2626647949219	1610.287841796875	-853.5047607421877	114.9762573242188	1609.308959960938	-864.742126464844	173.5322418212891	1427.143432617188	-678.6969604492189	173.8902740478516	1258.711791992188	-617.7445678710939	153.7784576416016	1217.990356445313	-608.3181762695314	203.5186309814454	1211.764892578125	-604.2201538085939	171.382553100586	1154.2724609375	-612.9929199218751	177.15625	1088.8115234375	-637.1340332031251	167.0128936767578	1055.541870117188	-598.8135986328126	217.1795501708985	1052.88330078125	-601.5173339843751	187.8852081298828	993.4986572265627	-593.4157104492189	173.054931640625	949.713562011719	-608.2135009765626	223.6964416503907	944.1081542968752	-616.7850952148439	195.4344787597657	889.268737792969	-591.6657104492189	4.39501714706421	682.2828369140626	-635.4687500000001	41.42681503295899	641.4551391601564	-577.9357299804689	22.18221664428711	625.2523803710939	-621.0247192382814	32.48208236694337	336.4586486816407	-536.8563232421876	49.1190757751465	287.8243713378907	-475.8742980957032	42.97419357299805	276.2458496093751	-524.6694946289064	144.2210845947266	100.9878311157227	-417.0072021484376	127.5348205566407	42.79154586791993	-627.0617675781251	30.56081199645997	31.54121780395509	-572.4035644531251	358.7296142578126	653.8208618164064	-779.862731933594	375.0137329101563	622.4147949218751	-851.1135253906252	349.1832580566407	603.0862426757814	-813.755310058594	346.9217224121094	328.3783569335938	-906.7344360351565	353.3450317382813	277.7794494628907	-966.2098388671877	332.9068298339844	270.3488464355469	-921.4180297851565	234.2815704345704	58.84702301025392	-998.8831176757815	267.2516784667969	133.0716400146485	-1193.331909179688	359.0688476562501	86.72913360595705	-1150.02880859375	179.4335021972657	1323.363891601563	-848.1790161132815	176.7077789306641	1179.01123046875	-859.1118164062502	3.181058406829835	1390.61328125	-759.0612792968751	-103.9990005493164	1245.349853515625	-776.5040283203127	-125.0285873413086	1182.926147460938	-776.4521484375002	-102.7367858886719	1196.726440429688	-820.9365844726565	-151.5806732177735	1009.549438476563	-893.3695068359377	-133.5112762451172	932.6174926757815	-897.8501586914065	-143.1949310302735	965.0601806640627	-934.8436279296877	-130.354248046875	896.1765136718752	-1011.710693359375	-62.48851013183595	930.6616821289065	-1036.721801757813	347.4764709472657	1381.846435546875	-757.3274536132814	446.007537841797	1240.016967773438	-708.1552734375001	458.8292846679689	1175.770141601563	-720.6178588867189	461.9839782714845	1187.978515625	-670.6159667968751	506.2378845214845	970.941589355469	-664.5123291015626	546.5540771484376	914.1104736328127	-703.2709350585939	514.8991088867189	907.6121215820315	-667.2525024414064	541.4287109375001	823.3771972656252	-686.1358642578126	480.5041503906251	796.874694824219	-734.3238525390626	
213	1.06	190.5245513916016	1584.43505859375	-912.8013305664065	254.282211303711	1609.131469726563	-860.445007324219	115.9856643676758	1608.281127929688	-871.6259765625002	174.478500366211	1426.09228515625	-685.5858154296876	174.7872314453125	1257.661499023438	-624.6223754882814	154.647933959961	1216.953369140625	-615.1520385742189	204.3909454345704	1210.678100585938	-611.1301269531251	172.1804962158203	1153.216430664063	-619.8429565429689	177.8145446777344	1087.714721679688	-644.0184936523439	167.7483520507813	1054.483276367188	-605.7387695312501	217.9005126953126	1051.737182617188	-608.5427856445314	188.5193023681641	992.4155883789065	-600.3834228515626	173.6673126220703	948.934020996094	-615.1099853515626	224.1408386230469	943.075134277344	-624.0679931640626	195.9245758056641	888.4716796875002	-598.4484252929689	4.52024269104004	682.2592163085939	-640.5719604492189	41.93125534057618	641.6915893554689	-583.0940551757814	22.27789115905762	625.2796020507814	-625.9243774414064	32.2547950744629	337.1087341308594	-539.9053344726564	48.88314437866212	289.0680847167969	-478.4695434570314	42.79399490356446	277.0399780273438	-527.1665649414064	143.9771423339844	102.8517990112305	-417.7883300781251	127.5370483398438	42.67520904541016	-627.2218017578126	30.55879211425782	31.59034156799317	-572.6320190429689	358.2697448730469	652.3716430664064	-785.9450683593752	375.3105773925782	620.8098754882814	-856.9909667968752	348.8278808593751	601.6545410156251	-819.9026489257815	346.7852172851563	327.1676940917969	-915.7080078125002	353.2229309082032	277.4816284179688	-976.0425415039065	332.9150695800782	269.3653869628907	-931.2843017578127	234.8724517822266	58.46224212646486	-1012.163757324219	266.4508666992188	136.4939117431641	-1205.471435546875	358.6126403808594	89.17274475097658	-1163.743286132813	180.1490325927735	1322.242919921875	-855.1489257812502	177.1837768554688	1177.919311523438	-866.033386230469	4.06238603591919	1389.707275390625	-765.8506469726564	-103.1314239501953	1244.584594726563	-783.456481933594	-124.2223510742188	1182.175537109375	-783.5830688476565	-101.976303100586	1196.102661132813	-828.0481567382815	-150.9262847900391	1009.395568847656	-901.3306274414065	-132.8516998291016	932.4882812500002	-906.3154907226565	-142.5129089355469	965.184020996094	-943.098083496094	-129.6373291015625	896.8375244140627	-1020.416137695313	-61.73756790161134	931.4915771484377	-1045.141357421875	348.3189697265626	1380.6640625	-764.3336181640626	446.7129211425782	1238.878540039063	-714.8442382812501	459.572235107422	1174.601440429688	-727.1333618164064	462.6328735351564	1186.928344726563	-677.1665649414064	506.8643493652345	969.880310058594	-670.5598144531251	547.1925048828126	912.9556274414065	-709.1618041992189	515.5050048828126	906.5401611328127	-673.1702880859376	542.0199584960939	822.2489013671877	-691.8331909179689	481.128631591797	795.6712036132815	-740.0909423828126	
